<?xml version="1.0" standalone="no"?><!DOCTYPE svg PUBLIC "-//W3C//DTD SVG 1.1//EN" "http://www.w3.org/Graphics/SVG/1.1/DTD/svg11.dtd"><svg t="1712891073862" class="icon" viewBox="0 0 1024 1024" version="1.1" xmlns="http://www.w3.org/2000/svg" p-id="79632" xmlns:xlink="http://www.w3.org/1999/xlink" width="200" height="200"><path d="M736.068571 467.222857a16.251429 16.251429 0 0 1-12.72 19.062857c-63.337143 23.234286-121.485714 26.377143-188.354285 25.714286-32 0-72.24 0-97.28-2.48-80-4.971429-135.017143-22.857143-137.062857-23.234286a16.242286 16.242286 0 0 1 6.148571-31.897143s55.405714 9.52 133.382857 14.08a1164.102857 1164.102857 0 0 0 277.005714-14.08 16.102857 16.102857 0 0 1 18.88 12.834286z m-221.257142-170.674286h-6a206.137143 206.137143 0 0 0-144 64.708572 297.314286 297.314286 0 0 0-51.36 65.84 15.428571 15.428571 0 0 1-7.497143 6.434286s-28.102857 11.325714-27.394286 32.16c4.868571 104 45.714286 172.925714 113.6 203.954285a15.177143 15.177143 0 0 1 7.131429 13.622857 22.365714 22.365714 0 0 0 7.497142 17.782858 155.588571 155.588571 0 0 0 104.982858 26.868571h4.502857a153.725714 153.725714 0 0 0 98.994285-26.868571 24.251429 24.251429 0 0 0 8.994286-17.782858 14.777143 14.777143 0 0 1 8.628572-13.622857c69.36-31.028571 108.731429-101.782857 112.48-204.331428 0-20.434286-26.994286-31.782857-27.428572-31.782857a13.154286 13.154286 0 0 1-7.497143-6.857143 310.32 310.32 0 0 0-52.491428-65.84 203.92 203.92 0 0 0-143.142857-64.285715z m0.468571-53.862857a225.977143 225.977143 0 0 1 97.348571 22.057143l6.48 3.211429a291.988571 291.988571 0 0 1 69.394286 48.731428l6.114286 5.954286a382.068571 382.068571 0 0 1 53.828571 65.565714l5.714286 9.005715a71.588571 71.588571 0 0 1 44.914286 60.502857l0.228571 3.714285a385.04 385.04 0 0 1-18.217143 106.285715l-3.131428 9.325714a261.314286 261.314286 0 0 1-35.817143 68.902857l-5.291429 6.914286a210.457143 210.457143 0 0 1-64 52.742857l-6.194285 3.188571a60.697143 60.697143 0 0 1-14.034286 28.925715l-2.788572 2.971428a128.262857 128.262857 0 0 1-54.377142 29.371429l-5.542858 1.28a291.428571 291.428571 0 0 1-70.582857 8.285714l-2.057143 1.668572h-5.325714a298.457143 298.457143 0 0 1-66.937143-6.171429l-9.394285-2.114286a130.64 130.64 0 0 1-55.28-29.211428l-4.228572-3.931429a56.56 56.56 0 0 1-16-27.874286l-0.811428-4.034285a212.994286 212.994286 0 0 1-66.022858-50.205715l-4.571428-5.302857a252.88 252.88 0 0 1-38.114286-67.257143l-2.88-8.182857a389.714286 389.714286 0 0 1-22.411428-105.714285l-0.571429-9.862858a72.548571 72.548571 0 0 1 41.382857-62.742857l3.348572-1.474285a382.994286 382.994286 0 0 1 52-67.051429l7.508571-7.52a307.085714 307.085714 0 0 1 67.245714-50.285714l8.262857-4.4a228.937143 228.937143 0 0 1 104.24-25.268572zM512 52.068571C257.977143 52.068571 52.068571 257.988571 52.068571 512S257.988571 971.931429 512 971.931429 971.931429 766 971.931429 512 766.011429 52.068571 512 52.068571zM512 0c282.765714 0 512 229.234286 512 512S794.765714 1024 512 1024 0 794.777143 0 512 229.222857 0 512 0z" fill="#508BED" p-id="79633"></path></svg>