<?xml version="1.0" standalone="no"?><!DOCTYPE svg PUBLIC "-//W3C//DTD SVG 1.1//EN" "http://www.w3.org/Graphics/SVG/1.1/DTD/svg11.dtd"><svg t="1712890484057" class="icon" viewBox="0 0 1024 1024" version="1.1" xmlns="http://www.w3.org/2000/svg" p-id="64121" xmlns:xlink="http://www.w3.org/1999/xlink" width="200" height="200"><path d="M889.0368 870.4a36.3008 36.3008 0 0 1-51.8144 32.2048l-264.6016-120.3712a36.8128 36.8128 0 0 0-31.7952 0.4608l-140.2368 69.3248c-24.1664 11.9296-51.6096 16.128-51.6096-10.24V397.6704a87.04 87.04 0 0 1 88.1152-86.272h363.8784a87.04 87.04 0 0 1 88.064 86.272z" fill="#CFF6FF" p-id="64122"></path><path d="M830.208 934.7072a76.288 76.288 0 0 1-31.4368-6.8096L514.6624 798.72a24.7808 24.7808 0 0 0-20.9408 0.256l-258.5088 125.7984a75.1616 75.1616 0 0 1-73.2672-3.84 71.9872 71.9872 0 0 1-34.304-61.44v-624.64c0-77.1584 64.5632-139.9296 143.9744-139.9296h489.0112c79.36 0 143.9232 62.7712 143.9232 139.9296v81.3568a25.6 25.6 0 0 1-51.2 0V235.0592c0-48.9472-41.5744-88.7296-92.7232-88.7296H271.616c-51.2 0-92.7744 39.7824-92.7744 88.7296v624.64a21.0944 21.0944 0 0 0 10.24 17.8688 24.32 24.32 0 0 0 23.7056 1.2288l258.5088-125.7472a75.52 75.52 0 0 1 64.512-0.8704l284.16 129.1264a24.3712 24.3712 0 0 0 23.3984-1.6384 21.0944 21.0944 0 0 0 9.984-17.7152v-304.3328a25.6 25.6 0 0 1 51.2 0v304.2816a72.192 72.192 0 0 1-33.4336 60.7744 75.6224 75.6224 0 0 1-40.9088 12.032z" fill="#474747" p-id="64123"></path><path d="M598.1184 273.92h-163.84a25.6 25.6 0 0 1 0-51.2h163.84a25.6 25.6 0 0 1 0 51.2z" fill="#474747" p-id="64124"></path><path d="M607.1296 683.1104a35.84 35.84 0 0 1-16.9472-4.2496L516.096 640l-74.0352 38.912A36.4032 36.4032 0 0 1 389.12 640.512l14.2336-82.432-59.904-58.4704A36.4032 36.4032 0 0 1 363.52 437.504l82.8928-12.032 37.0176-75.008a36.4032 36.4032 0 0 1 65.3312 0l37.0176 75.008 82.7904 12.032a36.4032 36.4032 0 0 1 20.1728 62.1056L628.8384 558.08l14.1312 82.4832a36.4544 36.4544 0 0 1-35.84 42.5984zM400.64 483.8912l44.032 42.9056a36.4544 36.4544 0 0 1 10.24 32.2048l-10.24 60.6208 54.4256-28.6208a36.4032 36.4032 0 0 1 33.8944 0l54.4768 28.5184-10.24-60.6208a36.4544 36.4544 0 0 1 10.24-32.2048l44.032-42.9056-60.8256-8.8576a36.5056 36.5056 0 0 1-27.4432-19.9168l-27.136-55.04-27.1872 55.1424a36.5056 36.5056 0 0 1-27.4432 19.9168z m260.5568 4.3008z" fill="#1285EF" p-id="64125"></path></svg>