<?xml version="1.0" standalone="no"?><!DOCTYPE svg PUBLIC "-//W3C//DTD SVG 1.1//EN" "http://www.w3.org/Graphics/SVG/1.1/DTD/svg11.dtd"><svg t="1712890337946" class="icon" viewBox="0 0 1024 1024" version="1.1" xmlns="http://www.w3.org/2000/svg" p-id="55865" xmlns:xlink="http://www.w3.org/1999/xlink" width="200" height="200"><path d="M392.1 959.6H120.2c-30.9 0-56-25.1-56-56V119.8c0-30.9 25.1-56 56-56h271.9c30.9 0 56 25.1 56 56v783.7c0 30.9-25.1 56.1-56 56.1zM120.2 95.8c-13.2 0-24 10.8-24 24v783.7c0 13.2 10.8 24 24 24h271.9c13.2 0 24-10.8 24-24V119.8c0-13.2-10.8-24-24-24H120.2z" fill="#00365B" p-id="55866"></path><path d="M889 448.2H585.1c-22.1 0-40-17.9-40-40V104.3c0-22.1 17.9-40 40-40H889c22.1 0 40 17.9 40 40v303.9c0 22.1-17.9 40-40 40z" fill="#0080FF" p-id="55867"></path><path d="M737.1 959.6c-59.6 0-115.6-23.2-157.7-65.3-42.1-42.1-65.3-98.1-65.3-157.7s23.2-115.6 65.3-157.7c42.1-42.1 98.1-65.3 157.7-65.3s115.6 23.2 157.7 65.3 65.3 98.1 65.3 157.7-23.2 115.6-65.3 157.7-98.1 65.3-157.7 65.3z m0-414.2c-105.4 0-191.1 85.7-191.1 191.1s85.7 191.1 191.1 191.1c105.4 0 191.1-85.7 191.1-191.1s-85.8-191.1-191.1-191.1z" fill="#00365B" p-id="55868"></path></svg>